HIERARCHY
ROOT root
{
	OFFSET	0	13.1	24.9
	CHANNELS 6  Xposition Yposition Zposition Xrotation Yrotation Zrotation
	JOINT spine_1
	{
		OFFSET	0	9.99999	0
		CHANNELS 3  Xrotation Yrotation Zrotation
		JOINT spine_2
		{
			OFFSET	0	112	-10
			CHANNELS 3  Xrotation Yrotation Zrotation
			JOINT spine_3
			{
				OFFSET	0	206.5	19.3
				CHANNELS 3  Xrotation Yrotation Zrotation
				JOINT spine_4
				{
					OFFSET	0	110.4	14.6
					CHANNELS 3  Xrotation Yrotation Zrotation
					JOINT neck_1
					{
						OFFSET	0	71.8	-50.3
						CHANNELS 3  Xrotation Yrotation Zrotation
						JOINT neck_2
						{
							OFFSET	0	86.2	-25.8
							CHANNELS 3  Xrotation Yrotation Zrotation
							JOINT head_ee
							{
								OFFSET	0	179.8	-8.7
								CHANNELS 3  Xrotation Yrotation Zrotation
								End Site
								{
									OFFSET	1	0	0
								}
							}
						}
					}
					JOINT left_clavicle
					{
						OFFSET	-43.2	22.4	-70.8
						CHANNELS 3  Xrotation Yrotation Zrotation
						JOINT left_shoulder
						{
							OFFSET	-93.9	-5.79999	48.7
							CHANNELS 3  Xrotation Yrotation Zrotation
							JOINT left_elbow
							{
								OFFSET	-291.4	-30.8	15.2
								CHANNELS 3  Xrotation Yrotation Zrotation
								JOINT left_lowarm_twist
								{
									OFFSET	-110.7	-3.89999	13.6
									CHANNELS 3  Xrotation Yrotation Zrotation
									JOINT left_hand
									{
										OFFSET	-110.7	-3.89999	13.6
										CHANNELS 3  Xrotation Yrotation Zrotation
										JOINT left_ee
										{
											OFFSET	-80.8	-5.10001	12.1
											CHANNELS 3  Xrotation Yrotation Zrotation
											End Site
											{
												OFFSET	1	0	0
											}
										}
									}
								}
							}
						}
					}
					JOINT right_clavicle
					{
						OFFSET	43.2	22.4	-70.8
						CHANNELS 3  Xrotation Yrotation Zrotation
						JOINT right_shoulder
						{
							OFFSET	93.9	-5.79999	48.7
							CHANNELS 3  Xrotation Yrotation Zrotation
							JOINT right_elbow
							{
								OFFSET	291.4	-30.8	15.2
								CHANNELS 3  Xrotation Yrotation Zrotation
								JOINT right_lowarm_twist
								{
									OFFSET	110.7	-3.89999	13.6
									CHANNELS 3  Xrotation Yrotation Zrotation
									JOINT right_hand
									{
										OFFSET	110.7	-3.89999	13.6
										CHANNELS 3  Xrotation Yrotation Zrotation
										JOINT right_ee
										{
											OFFSET	80.8	-5.10001	12.1
											CHANNELS 3  Xrotation Yrotation Zrotation
											End Site
											{
												OFFSET	1	0	0
											}
										}
									}
								}
							}
						}
					}
				}
			}
		}
	}
	JOINT left_hip
	{
		OFFSET	-82.8	-127.5	0.300001
		CHANNELS 3  Xrotation Yrotation Zrotation
		JOINT left_knee
		{
			OFFSET	-28.2	-396.7	2.2
			CHANNELS 3  Xrotation Yrotation Zrotation
			JOINT left_ankle
			{
				OFFSET	-11.7	-411.3	35.4
				CHANNELS 3  Xrotation Yrotation Zrotation
				JOINT left_toes
				{
					OFFSET	0	-60	-88.6
					CHANNELS 3  Xrotation Yrotation Zrotation
					JOINT left_foot_ee
					{
						OFFSET	-22.5	-16.5	-42.2
						CHANNELS 3  Xrotation Yrotation Zrotation
						End Site
						{
							OFFSET	1	0	0
						}
					}
				}
			}
		}
	}
	JOINT right_hip
	{
		OFFSET	82.8	-127.5	0.300001
		CHANNELS 3  Xrotation Yrotation Zrotation
		JOINT right_knee
		{
			OFFSET	28.2	-396.7	2.2
			CHANNELS 3  Xrotation Yrotation Zrotation
			JOINT right_ankle
			{
				OFFSET	11.7	-411.3	35.4
				CHANNELS 3  Xrotation Yrotation Zrotation
				JOINT right_toes
				{
					OFFSET	0	-60	-88.6
					CHANNELS 3  Xrotation Yrotation Zrotation
					JOINT right_foot_ee
					{
						OFFSET	22.5	-16.5	-42.2
						CHANNELS 3  Xrotation Yrotation Zrotation
						End Site
						{
							OFFSET	1	0	0
						}
					}
				}
			}
		}
	}
}
MOTION
Frames: 12
Frame Time: 0.02
2501.4264501 746.858 -1588.92361013 -5.19227125213 52.6986387155 -3.94196625291 3.78484 0.798266 4.49207 3.79592 0.511108 4.53364 3.83056 -0.148643 4.55989 3.80201 0.572619 4.5263 -6.16716 15.5775 -6.15592 -5.87674 33.3056 -3.26518 -0.0 0.0 -0.0 -5.41309 22.4441 -5.01498 -28.1985 -8.64799 57.5764 2.25881 -48.2064 1.01067 1.8005 0.0599499 -0.222139 0.40809 -11.8676 -2.29323 -0.0 0.0 -0.0 12.3958 16.0319 -25.0672 -14.793 53.8558 -71.3442 0.999113 26.3317 -0.233717 21.2736 -0.252748 2.69018 0.795217 -19.1871 -12.6116 0.0 0.0 0.0 9.34074 50.8607 -11.8677 -31.427 -0.0132323 4.76293 29.0947 -22.5414 -4.3209 -17.1124 0.0 0.0 -0.0 0.0 -0.0 2.58206 44.6134 -1.48887 6.2114 0.305144 0.903562 17.9296 -9.13198 2.47208 27.6422 -0.0 -0.0 0.0 0.0 0.0 
2487.20609034 742.662 -1582.08458825 -6.29535246004 54.7108440494 -2.96718223605 3.71642 0.72677 4.61683 3.72817 0.431842 4.65361 3.7573 -0.250671 4.66685 3.72725 0.488702 4.648 -4.91227 17.3859 -5.8557 -4.38957 36.3341 -3.07673 -0.0 0.0 -0.0 -5.54713 21.581 -5.44376 -28.7507 -9.06326 59.2486 1.98839 -44.5618 0.814792 2.42088 0.0789839 -0.299095 0.261156 -9.70804 -2.3615 -0.0 0.0 -0.0 12.3467 15.3479 -24.9805 -14.1443 53.3227 -72.2891 0.991049 26.1476 -0.230152 21.6462 -0.248223 2.73755 0.799408 -15.7615 -11.4336 0.0 0.0 0.0 13.578 56.5233 -14.6076 -23.9114 0.228734 3.63572 32.4208 -18.1194 -4.52993 -18.5474 0.0 0.0 -0.0 0.0 -0.0 2.68872 41.8843 -1.71579 5.57628 0.269456 0.812722 19.9952 -10.093 2.73376 24.7553 -0.0 -0.0 0.0 0.0 0.0 
2454.21486941 749.926 -1560.60979686 -11.7084282717 55.1956877062 1.59347037625 4.73591 0.725787 3.9311 4.74438 0.474372 3.96924 4.77051 -0.0378335 3.99726 4.74871 0.593432 3.95321 -8.05063 18.983 -3.4561 -8.19406 37.8985 0.918173 -0.0 0.0 -0.0 -5.04861 14.7539 -6.45079 -30.6778 -10.5162 67.8805 1.20217 -30.7734 0.330842 16.6723 0.28319 -2.10342 0.48749 13.6149 8.67059 -0.0 0.0 -0.0 13.3284 23.2724 -26.7343 -16.6653 48.1713 -72.7243 0.818243 22.0642 -0.159529 29.4032 -0.0844144 3.71416 0.844911 -14.5078 -11.27 0.0 0.0 0.0 22.5146 67.6952 -18.596 -15.3377 0.322025 2.32469 17.7996 -30.2941 -3.09514 -4.62956 0.0 0.0 -0.0 0.0 -0.0 4.85727 35.7259 -2.85776 5.16886 0.247096 0.754248 19.4142 -11.5997 2.66574 3.43235 -0.0 -0.0 0.0 0.0 0.0 
2447.59604713 743.154 -1550.78418745 -14.0826147875 56.527115355 4.2516006033 5.20039 0.647933 3.92624 5.20887 0.396984 3.95944 5.22847 -0.0816682 3.97842 5.2068 0.547177 3.94152 -8.74971 17.8309 -1.88751 -8.99815 34.7374 2.42734 -0.0 0.0 -0.0 -6.31133 14.6648 -8.57204 -31.8095 -8.68618 69.9354 1.51056 -36.8046 0.50259 18.6746 0.275736 -2.35903 0.132916 23.0193 9.98047 -0.0 0.0 -0.0 13.0529 23.1392 -26.1056 -16.6445 48.212 -73.833 0.836379 22.5049 -0.166406 30.7548 -0.0424088 3.88169 0.914019 -16.4581 -12.4028 0.0 0.0 0.0 24.3808 67.7931 -20.1045 -16.2791 0.321385 2.46913 19.1834 -29.6696 -3.28284 0.710663 -0.0 -0.0 -0.0 0.0 -0.0 5.07903 35.4755 -2.56192 6.12035 0.299965 0.890563 23.5657 -9.09443 3.16529 0.0122457 -0.0 -0.0 0.0 0.0 0.0 
2441.46916201 741.856 -1547.78821084 -14.8574145645 58.0345531028 6.20918997167 5.38148 0.582471 3.85748 5.38969 0.336019 3.88667 5.4045 -0.121581 3.89925 5.38363 0.495289 3.86962 -7.68107 18.3544 -2.09865 -7.77077 35.742 1.97036 -0.0 0.0 -0.0 -7.62832 15.0968 -10.6579 -30.5746 -3.89663 71.5618 1.79374 -41.6193 0.68177 20.7972 0.258086 -2.62956 -0.481807 27.4894 8.13842 -0.0 0.0 -0.0 13.244 23.127 -26.5515 -16.3029 47.6841 -75.2278 0.768375 20.8383 -0.141291 30.8817 -0.0382653 3.89735 1.06956 -22.0886 -15.2503 0.0 0.0 0.0 34.5295 68.7543 -30.7311 -18.3077 0.31194 2.78022 18.3085 -30.3378 -3.17651 5.39063 -0.0 -0.0 -0.0 0.0 -0.0 6.36334 32.8691 -4.42632 5.88193 0.286505 0.856487 21.7784 -8.29105 2.9495 1.56189 -0.0 -0.0 0.0 0.0 0.0 
2423.4749581 749.939 -1530.4340269 -16.423063392 61.7458780264 8.77270911138 5.44167 0.493712 3.91468 5.45016 0.243807 3.93811 5.45857 -0.215687 3.93975 5.43714 0.408739 3.92445 -7.47224 18.6059 -4.13189 -7.47991 37.6035 -0.0792269 -0.0 0.0 -0.0 -8.49646 16.695 -11.5772 -28.9836 -3.14179 71.8807 1.8432 -42.394 0.714872 20.6438 0.259697 -2.61004 -0.838323 28.7276 6.6726 -0.0 0.0 -0.0 12.9554 22.1786 -25.9676 -19.1199 47.4717 -75.198 0.751141 20.4099 -0.13522 31.4249 -0.0201209 3.96437 1.36705 -27.5345 -18.6276 0.0 0.0 0.0 26.5214 68.6979 -27.891 -23.2877 0.24213 3.54094 18.2957 -31.0727 -3.2063 10.7249 -0.0 -0.0 -0.0 0.0 -0.0 11.0877 31.592 -6.11033 -2.93728 -0.109745 -0.43737 24.8647 -7.25871 3.31519 3.7321 -0.0 -0.0 0.0 0.0 0.0 
2423.4644466 749.939 -1530.36396071 -16.4286606309 61.7560792304 8.77906312013 5.44167 0.493712 3.91468 5.45016 0.243807 3.93811 5.45857 -0.215687 3.93975 5.43714 0.408739 3.92445 -7.47224 18.6059 -4.13189 -7.47991 37.6035 -0.0792269 -0.0 0.0 -0.0 -8.49646 16.695 -11.5772 -28.9836 -3.14179 71.8807 1.8432 -42.394 0.714872 20.6438 0.259697 -2.61004 -0.838323 28.7276 6.6726 -0.0 0.0 -0.0 12.9554 22.1786 -25.9676 -19.1199 47.4717 -75.198 0.751141 20.4099 -0.13522 31.4249 -0.0201209 3.96437 1.36705 -27.5345 -18.6276 0.0 0.0 0.0 26.5214 68.6979 -27.891 -23.2877 0.24213 3.54094 18.2957 -31.0727 -3.2063 10.7249 -0.0 -0.0 -0.0 0.0 -0.0 11.0877 31.592 -6.11033 -2.93728 -0.109745 -0.43737 24.8647 -7.25871 3.31519 3.7321 -0.0 -0.0 0.0 0.0 0.0 
2423.6417263 749.939 -1531.53402392 -16.3357231124 61.5856494749 8.67348076168 5.44167 0.493712 3.91468 5.45016 0.243807 3.93811 5.45857 -0.215687 3.93975 5.43714 0.408739 3.92445 -7.47224 18.6059 -4.13189 -7.47991 37.6035 -0.0792269 -0.0 0.0 -0.0 -8.49646 16.695 -11.5772 -28.9836 -3.14179 71.8807 1.8432 -42.394 0.714872 20.6438 0.259697 -2.61004 -0.838323 28.7276 6.6726 -0.0 0.0 -0.0 12.9554 22.1786 -25.9676 -19.1199 47.4717 -75.198 0.751141 20.4099 -0.13522 31.4249 -0.0201209 3.96437 1.36705 -27.5345 -18.6276 0.0 0.0 0.0 26.5214 68.6979 -27.891 -23.2877 0.24213 3.54094 18.2957 -31.0727 -3.2063 10.7249 -0.0 -0.0 -0.0 0.0 -0.0 11.0877 31.592 -6.11033 -2.93728 -0.109745 -0.43737 24.8647 -7.25871 3.31519 3.7321 -0.0 -0.0 0.0 0.0 0.0 
2423.36839487 749.939 -1529.71955587 -16.4803313164 61.849873493 8.83769131227 5.44167 0.493712 3.91468 5.45016 0.243807 3.93811 5.45857 -0.215687 3.93975 5.43714 0.408739 3.92445 -7.47224 18.6059 -4.13189 -7.47991 37.6035 -0.0792269 -0.0 0.0 -0.0 -8.49646 16.695 -11.5772 -28.9836 -3.14179 71.8807 1.8432 -42.394 0.714872 20.6438 0.259697 -2.61004 -0.838323 28.7276 6.6726 -0.0 0.0 -0.0 12.9554 22.1786 -25.9676 -19.1199 47.4717 -75.198 0.751141 20.4099 -0.13522 31.4249 -0.0201209 3.96437 1.36705 -27.5345 -18.6276 0.0 0.0 0.0 26.5214 68.6979 -27.891 -23.2877 0.24213 3.54094 18.2957 -31.0727 -3.2063 10.7249 -0.0 -0.0 -0.0 0.0 -0.0 11.0877 31.592 -6.11033 -2.93728 -0.109745 -0.43737 24.8647 -7.25871 3.31519 3.7321 -0.0 -0.0 0.0 0.0 0.0 
2423.87061713 749.939 -1533.00976957 -16.2201017268 61.3704640492 8.54188884741 5.44167 0.493712 3.91468 5.45016 0.243807 3.93811 5.45857 -0.215687 3.93975 5.43714 0.408739 3.92445 -7.47224 18.6059 -4.13189 -7.47991 37.6035 -0.0792269 -0.0 0.0 -0.0 -8.49646 16.695 -11.5772 -28.9836 -3.14179 71.8807 1.8432 -42.394 0.714872 20.6438 0.259697 -2.61004 -0.838323 28.7276 6.6726 -0.0 0.0 -0.0 12.9554 22.1786 -25.9676 -19.1199 47.4717 -75.198 0.751141 20.4099 -0.13522 31.4249 -0.0201209 3.96437 1.36705 -27.5345 -18.6276 0.0 0.0 0.0 26.5214 68.6979 -27.891 -23.2877 0.24213 3.54094 18.2957 -31.0727 -3.2063 10.7249 -0.0 -0.0 -0.0 0.0 -0.0 11.0877 31.592 -6.11033 -2.93728 -0.109745 -0.43737 24.8647 -7.25871 3.31519 3.7321 -0.0 -0.0 0.0 0.0 0.0 
2423.95092973 749.939 -1533.51872966 -16.1806323936 61.296190432 8.49690573333 5.44167 0.493712 3.91468 5.45016 0.243807 3.93811 5.45857 -0.215687 3.93975 5.43714 0.408739 3.92445 -7.47224 18.6059 -4.13189 -7.47991 37.6035 -0.0792269 -0.0 0.0 -0.0 -8.49646 16.695 -11.5772 -28.9836 -3.14179 71.8807 1.8432 -42.394 0.714872 20.6438 0.259697 -2.61004 -0.838323 28.7276 6.6726 -0.0 0.0 -0.0 12.9554 22.1786 -25.9676 -19.1199 47.4717 -75.198 0.751141 20.4099 -0.13522 31.4249 -0.0201209 3.96437 1.36705 -27.5345 -18.6276 0.0 0.0 0.0 26.5214 68.6979 -27.891 -23.2877 0.24213 3.54094 18.2957 -31.0727 -3.2063 10.7249 -0.0 -0.0 -0.0 0.0 -0.0 11.0877 31.592 -6.11033 -2.93728 -0.109745 -0.43737 24.8647 -7.25871 3.31519 3.7321 -0.0 -0.0 0.0 0.0 0.0 
2422.81170944 749.939 -1525.82444916 -16.8002184289 62.4157756919 9.19953614904 5.44167 0.493712 3.91468 5.45016 0.243807 3.93811 5.45857 -0.215687 3.93975 5.43714 0.408739 3.92445 -7.47224 18.6059 -4.13189 -7.47991 37.6035 -0.0792269 -0.0 0.0 -0.0 -8.49646 16.695 -11.5772 -28.9836 -3.14179 71.8807 1.8432 -42.394 0.714872 20.6438 0.259697 -2.61004 -0.838323 28.7276 6.6726 -0.0 0.0 -0.0 12.9554 22.1786 -25.9676 -19.1199 47.4717 -75.198 0.751141 20.4099 -0.13522 31.4249 -0.0201209 3.96437 1.36705 -27.5345 -18.6276 0.0 0.0 0.0 26.5214 68.6979 -27.891 -23.2877 0.24213 3.54094 18.2957 -31.0727 -3.2063 10.7249 -0.0 -0.0 -0.0 0.0 -0.0 11.0877 31.592 -6.11033 -2.93728 -0.109745 -0.43737 24.8647 -7.25871 3.31519 3.7321 -0.0 -0.0 0.0 0.0 0.0 
